<svg width="400" height="400" viewBox="0 0 400 400" fill="none" xmlns="http://www.w3.org/2000/svg">
<rect width="400" height="400" fill="#F5F5F5"/>
<rect x="110" y="130" width="44.9372" height="5.02994" fill="black"/>
<rect x="239.569" y="141.737" width="15.728" height="128.263" fill="#000F5F"/>
<rect width="40.4435" height="8.38323" transform="matrix(-1 0 0 1 268.029 261.617)" fill="#000F5F"/>
<path fill-rule="evenodd" clip-rule="evenodd" d="M268.029 141.737H289V158.052C288.388 158.282 287.782 158.529 287.185 158.792C283.955 148.735 276.761 141.737 268.404 141.737C268.279 141.737 268.154 141.738 268.029 141.741V141.737Z" fill="#000F5F"/>
<path fill-rule="evenodd" clip-rule="evenodd" d="M199.126 131.213C206.023 133.065 210.747 136.843 210.747 141.203C210.747 141.382 210.739 141.56 210.724 141.737H289V130H199.126V131.213Z" fill="#000F5F"/>
<rect x="123.481" y="135.03" width="11.2343" height="62.09" fill="#000F5F"/>
<rect width="20.9707" height="8.32915" transform="matrix(-1 0 0 1 139.958 197.12)" fill="#000F5F"/>
<rect width="44.9372" height="5.86826" transform="translate(110 264.132)" fill="black"/>
<path fill-rule="evenodd" clip-rule="evenodd" d="M154.937 147.605H143.703V256.164H146.17L154.937 235.749V147.605Z" fill="black"/>
<rect x="136.213" y="143.413" width="18.7239" height="4.19162" fill="black"/>
<path fill-rule="evenodd" clip-rule="evenodd" d="M170.112 270H154.937V263.988H164.253C181.329 263.988 195.173 250.144 195.173 233.067C195.173 232.749 195.168 232.431 195.158 232.115L205.301 223.756C206.157 226.857 206.615 230.123 206.615 233.497C206.615 253.657 190.272 270 170.112 270ZM199.163 211.391C195.4 206.454 190.407 202.504 184.642 200C197.572 194.384 206.615 181.499 206.615 166.503C206.615 146.343 190.272 130 170.112 130H154.937V135.153H164.253C181.329 135.153 195.173 148.997 195.173 166.074C195.173 183.143 181.341 196.982 164.275 196.994L164.253 196.994H154.937V203.006H170.112C170.551 203.006 170.988 202.998 171.423 202.983C179.917 205 187.054 210.521 191.223 217.935L199.163 211.391Z" fill="black"/>
</svg>
