<svg width="396" height="106" viewBox="0 0 396 106" fill="none" xmlns="http://www.w3.org/2000/svg">
<path d="M47.3091 2L67.9186 6.95156L84.4461 20.8255L93.6181 40.874V63.126L82.3091 82.5L67.9186 97.0484L47.3091 104L26.6996 97.0484L12.3091 82.5L1 63.126V40.874L10.1721 20.8255L26.6996 6.95156L47.3091 2Z" stroke="white" stroke-width="2"/>
<path d="M41.8091 36.1493L52.8091 36.1493" stroke="white" stroke-width="2"/>
<path d="M42.3091 36.5L26.9889 24" stroke="white" stroke-width="2"/>
<path d="M52.8091 36L66.3091 24" stroke="white" stroke-width="2"/>
<path d="M35 60.5L54.8091 43" stroke="white" stroke-width="2"/>
<path d="M59.5 60.5L40.1089 43" stroke="white" stroke-width="2"/>
<line y1="-1" x2="54.4152" y2="-1" transform="matrix(0.733252 -0.679958 0.641799 0.766873 1.70908 41)" stroke="white" stroke-width="2"/>
<line y1="-1" x2="55.1" y2="-1" transform="matrix(0.724138 0.689655 -0.651832 0.758364 53.0091 4)" stroke="white" stroke-width="2"/>
<path d="M2.09414 40.681L47.3091 103" stroke="white" stroke-width="2"/>
<line y1="-1" x2="43.1676" y2="-1" transform="matrix(-0.088029 0.996118 -0.99524 -0.0974531 10.259 21)" stroke="white" stroke-width="2"/>
<path d="M7.21268 63.3427L34.5 99.5" stroke="white" stroke-width="2"/>
<line y1="-1" x2="43.1676" y2="-1" transform="matrix(0.088029 0.996118 0.99524 -0.0974531 84.3591 21)" stroke="white" stroke-width="2"/>
<path d="M87.4055 63.3427L59 100" stroke="white" stroke-width="2"/>
<path d="M47.8091 103L92.524 40.681" stroke="white" stroke-width="2"/>
<line x1="1.70908" y1="63" x2="2.65908" y2="63" stroke="white" stroke-width="2"/>
<line x1="1.70908" y1="63" x2="7.40908" y2="63" stroke="white" stroke-width="2"/>
<path d="M87.5 63H92.9091" stroke="white" stroke-width="2"/>
<line y1="-1" x2="18.6162" y2="-1" transform="matrix(-0.255154 -0.9669 0.959811 -0.280647 7.4091 29)" stroke="white" stroke-width="2"/>
<line y1="-1" x2="12.1587" y2="-1" transform="matrix(0.725953 -0.687745 0.649852 0.760061 2.6591 12)" stroke="white" stroke-width="2"/>
<line x1="10.2591" y1="3" x2="19.7591" y2="3" stroke="white" stroke-width="2"/>
<line y1="-1" x2="7.29538" y2="-1" transform="matrix(0.911536 0.411219 -0.377087 0.926178 18.8091 4)" stroke="white" stroke-width="2"/>
<line y1="-1" x2="2.21416" y2="-1" transform="matrix(0.429057 0.903278 -0.884918 0.465746 24.5091 6)" stroke="white" stroke-width="2"/>
<line x1="9.85286" y1="22.2927" x2="6.85284" y2="12.4903" stroke="white" stroke-width="2"/>
<line y1="-1" x2="6.93257" y2="-1" transform="matrix(0.725953 -0.687745 0.649852 0.760061 7.80908 12.7678)" stroke="white" stroke-width="2"/>
<line x1="12.1424" y1="7.20642" x2="17.5591" y2="7.20642" stroke="white" stroke-width="2"/>
<line y1="-1" x2="4.15964" y2="-1" transform="matrix(0.911536 0.411219 -0.377087 0.926178 17.0174 8.20642)" stroke="white" stroke-width="2"/>
<path d="M20.7099 9.11392L22.3091 11.5" stroke="white" stroke-width="2"/>
<line y1="-1" x2="18.6162" y2="-1" transform="matrix(0.255154 -0.9669 -0.959811 -0.280647 87.209 29.3621)" stroke="white" stroke-width="2"/>
<line y1="-1" x2="12.1587" y2="-1" transform="matrix(-0.725953 -0.687745 -0.649852 0.760061 91.959 12.3621)" stroke="white" stroke-width="2"/>
<line y1="-1" x2="9.5" y2="-1" transform="matrix(-1 0 0 1 84.3591 4.36206)" stroke="white" stroke-width="2"/>
<line y1="-1" x2="7.29538" y2="-1" transform="matrix(-0.911536 0.411219 0.377087 0.926178 75.8091 4.36206)" stroke="white" stroke-width="2"/>
<line y1="-1" x2="2.21416" y2="-1" transform="matrix(-0.429057 0.903278 0.884918 0.465746 70.1091 6.36206)" stroke="white" stroke-width="2"/>
<path d="M84.321 21.8915L86.8091 13" stroke="white" stroke-width="2"/>
<line y1="-1" x2="6.93257" y2="-1" transform="matrix(-0.725953 -0.687745 -0.649852 0.760061 86.8091 13.7678)" stroke="white" stroke-width="2"/>
<line y1="-1" x2="5.41667" y2="-1" transform="matrix(-1 0 0 1 82.4757 9.20642)" stroke="white" stroke-width="2"/>
<line y1="-1" x2="4.15964" y2="-1" transform="matrix(-0.911536 0.411219 0.377087 0.926178 77.6007 9.20642)" stroke="white" stroke-width="2"/>
<path d="M73.9083 10.1139L72.8091 11.5" stroke="white" stroke-width="2"/>
<line y1="-1" x2="41.1911" y2="-1" transform="matrix(0.899467 -0.436988 0.401558 0.915834 10.2591 33)" stroke="white" stroke-width="2"/>
<line y1="-1" x2="41.6378" y2="-1" transform="matrix(0.889817 0.456317 -0.420017 0.907516 47.3091 15)" stroke="white" stroke-width="2"/>
<line x1="32.1091" y1="81" x2="62.5091" y2="81" stroke="white" stroke-width="2"/>
<path d="M34 81.1278L37.6316 83.895L40.5 86" stroke="white" stroke-width="2"/>
<line y1="-1" x2="9.68298" y2="-1" transform="matrix(0.784882 -0.619646 0.580276 0.81442 55 87)" stroke="white" stroke-width="2"/>
<path d="M40 86H55" stroke="white" stroke-width="2"/>
<path d="M47.55 61V64.4298V67.2308H39L42.3981 61H47.55Z" fill="white"/>
<path d="M47.5501 61V64.4298V67.2308H56.1001L52.702 61H47.5501Z" fill="white"/>
<path d="M47.55 77.7751L42.2885 76.8077L39 67.2308H47.55V77.7751Z" fill="white"/>
<path d="M47.55 77.7751L53.25 76.8077L56.1 67.2308H47.55V77.7751Z" fill="white"/>
<path d="M10.7472 32.6781L40.5 67.5" stroke="white" stroke-width="2"/>
<path d="M55 67L83.8772 33.6736" stroke="white" stroke-width="2"/>
<path d="M32.2087 81.618L44 74.5" stroke="white" stroke-width="2"/>
<path d="M50.5 74L62.7011 81.2109" stroke="white" stroke-width="2"/>
<path d="M21.8091 37L37.0091 45H24.9757L21.8091 37Z" fill="#4AD5F4"/>
<path d="M73.4757 37L57.6424 45H70.3091L73.4757 37Z" fill="#4AD5F4"/>
<path d="M47.3091 14.5L59.3091 60.5" stroke="white" stroke-width="2"/>
<path d="M39.8091 43L54.8091 43" stroke="white" stroke-width="2"/>
<path d="M35.3091 60.5L47.1549 14.9492" stroke="white" stroke-width="2"/>
<path d="M140 49.45C142.8 49.7833 145.017 50.7167 146.65 52.25C148.317 53.7833 149.15 55.6833 149.15 57.95C149.15 59.6833 148.65 61.25 147.65 62.65C146.65 64.05 145.267 65.1667 143.5 66C141.733 66.8 139.767 67.2 137.6 67.2C136.667 67.2 135.6 67.15 134.4 67.05C133.933 67.0167 133.35 66.9833 132.65 66.95C131.983 66.9167 131.233 66.9 130.4 66.9L126.75 66.95C126.083 66.9833 125.183 67 124.05 67C123.95 67 123.9 66.9 123.9 66.7C123.9 66.5 123.95 66.4 124.05 66.4C125.017 66.4 125.75 66.3167 126.25 66.15C126.75 65.95 127.1 65.6167 127.3 65.15C127.533 64.65 127.65 63.9167 127.65 62.95V39.8C127.65 38.4 127.417 37.4833 126.95 37.05C126.483 36.5833 125.533 36.35 124.1 36.35C124.033 36.35 124 36.25 124 36.05C124 35.85 124.033 35.75 124.1 35.75L126.75 35.8C128.283 35.8667 129.5 35.9 130.4 35.9C131.333 35.9 132.3 35.85 133.3 35.75C133.633 35.7167 134.133 35.6833 134.8 35.65C135.467 35.6167 136.05 35.6 136.55 35.6C139.583 35.6 141.933 36.15 143.6 37.25C145.267 38.35 146.1 39.95 146.1 42.05C146.1 43.65 145.567 45.1 144.5 46.4C143.467 47.7 141.967 48.7167 140 49.45ZM135.8 36.7C134.833 36.7 134.167 36.9333 133.8 37.4C133.433 37.8333 133.25 38.6667 133.25 39.9V49.4L135.25 49.45C136.983 49.45 138.317 48.8 139.25 47.5C140.183 46.2 140.65 44.5333 140.65 42.5C140.65 40.6 140.233 39.1667 139.4 38.2C138.567 37.2 137.367 36.7 135.8 36.7ZM136.75 65.95C141.117 65.95 143.3 63.6833 143.3 59.15C143.3 56.5833 142.683 54.55 141.45 53.05C140.217 51.55 138.35 50.8 135.85 50.8C134.883 50.8 134.017 50.8333 133.25 50.9V62.95C133.25 64.05 133.467 64.8333 133.9 65.3C134.333 65.7333 135.283 65.95 136.75 65.95ZM166.686 47.2C167.453 47.2 168.186 47.4833 168.886 48.05C169.62 48.5833 169.986 49.2333 169.986 50C169.986 50.7 169.77 51.2833 169.336 51.75C168.903 52.1833 168.336 52.4 167.636 52.4C167.136 52.4 166.72 52.3 166.386 52.1C166.086 51.9 165.77 51.6 165.436 51.2C165.136 50.8667 164.87 50.6333 164.636 50.5C164.436 50.3333 164.186 50.25 163.886 50.25C163.553 50.25 163.186 50.3833 162.786 50.65C162.42 50.8833 161.836 51.4 161.036 52.2V62.95C161.036 64.2833 161.353 65.2 161.986 65.7C162.62 66.1667 163.786 66.4 165.486 66.4C165.62 66.4 165.686 66.5 165.686 66.7C165.686 66.9 165.62 67 165.486 67C164.32 67 163.403 66.9833 162.736 66.95L158.686 66.9L155.736 66.95C155.236 66.9833 154.553 67 153.686 67C153.586 67 153.536 66.9 153.536 66.7C153.536 66.5 153.586 66.4 153.686 66.4C154.72 66.4 155.42 66.1667 155.786 65.7C156.153 65.2 156.336 64.2833 156.336 62.95V53.55C156.336 52.5167 156.203 51.7667 155.936 51.3C155.703 50.8 155.32 50.55 154.786 50.55C154.22 50.55 153.42 50.7833 152.386 51.25H152.286C152.186 51.25 152.103 51.1667 152.036 51C152.003 50.8333 152.02 50.7333 152.086 50.7L159.036 47.3C159.236 47.2333 159.353 47.2 159.386 47.2C159.753 47.2 160.086 47.55 160.386 48.25C160.72 48.9167 160.92 49.8333 160.986 51C162.353 49.6 163.47 48.6167 164.336 48.05C165.236 47.4833 166.02 47.2 166.686 47.2ZM195.632 63.75C195.732 63.75 195.815 63.8333 195.882 64C195.982 64.1667 195.982 64.2667 195.882 64.3L188.982 67.65C188.915 67.6833 188.832 67.7 188.732 67.7C188.398 67.7 188.098 67.35 187.832 66.65C187.598 65.9167 187.465 64.9333 187.432 63.7C185.232 66.3 182.848 67.6 180.282 67.6C178.448 67.6 176.998 67.0333 175.932 65.9C174.898 64.7333 174.382 63.2167 174.382 61.35V54C174.382 51.8333 173.865 50.75 172.832 50.75C172.465 50.75 172.048 50.8667 171.582 51.1H171.532C171.398 51.1 171.298 51.0167 171.232 50.85C171.165 50.65 171.182 50.5333 171.282 50.5L177.982 47.3L178.232 47.25C178.398 47.25 178.565 47.3333 178.732 47.5C178.932 47.6333 179.032 47.7667 179.032 47.9V58.95C179.032 62.55 180.415 64.35 183.182 64.35C183.915 64.35 184.648 64.2 185.382 63.9C186.148 63.5667 186.832 63.1167 187.432 62.55V54C187.432 51.8333 186.915 50.75 185.882 50.75C185.515 50.75 185.082 50.8667 184.582 51.1H184.532C184.432 51.1 184.348 51.0167 184.282 50.85C184.215 50.65 184.232 50.5333 184.332 50.5L191.032 47.3C191.098 47.2667 191.182 47.25 191.282 47.25C191.448 47.25 191.615 47.3333 191.782 47.5C191.982 47.6333 192.082 47.7667 192.082 47.9V61.2C192.082 62.3333 192.182 63.1333 192.382 63.6C192.615 64.0667 192.982 64.3 193.482 64.3C193.948 64.3 194.632 64.1167 195.532 63.75H195.632ZM202.676 42.25C201.709 42.25 200.959 41.9833 200.426 41.45C199.892 40.9167 199.626 40.1667 199.626 39.2C199.626 38.3333 199.892 37.65 200.426 37.15C200.992 36.6167 201.742 36.35 202.676 36.35C203.609 36.35 204.326 36.6 204.826 37.1C205.326 37.6 205.576 38.3 205.576 39.2C205.576 40.1667 205.326 40.9167 204.826 41.45C204.326 41.9833 203.609 42.25 202.676 42.25ZM197.876 67C197.776 67 197.726 66.9 197.726 66.7C197.726 66.5 197.776 66.4 197.876 66.4C198.909 66.4 199.609 66.1667 199.976 65.7C200.342 65.2 200.526 64.2833 200.526 62.95V54C200.526 52.8667 200.409 52.05 200.176 51.55C199.942 51.05 199.559 50.8 199.026 50.8C198.592 50.8 197.976 50.9833 197.176 51.35H197.126C196.992 51.35 196.892 51.2667 196.826 51.1C196.759 50.9 196.776 50.7833 196.876 50.75L204.426 47.25L204.576 47.2C204.742 47.2 204.909 47.2833 205.076 47.45C205.242 47.6167 205.326 47.7667 205.326 47.9V49C205.259 50.3333 205.226 51.9667 205.226 53.9V62.95C205.226 64.2833 205.409 65.2 205.776 65.7C206.176 66.1667 206.892 66.4 207.926 66.4C208.026 66.4 208.076 66.5 208.076 66.7C208.076 66.9 208.026 67 207.926 67C207.059 67 206.376 66.9833 205.876 66.95L202.876 66.9L199.926 66.95C199.426 66.9833 198.742 67 197.876 67ZM234.511 66.4C234.611 66.4 234.661 66.5 234.661 66.7C234.661 66.9 234.611 67 234.511 67C233.644 67 232.961 66.9833 232.461 66.95L229.461 66.9L226.561 66.95C226.027 66.9833 225.327 67 224.461 67C224.361 67 224.311 66.9 224.311 66.7C224.311 66.5 224.361 66.4 224.461 66.4C225.494 66.4 226.194 66.1667 226.561 65.7C226.927 65.2 227.111 64.2833 227.111 62.95V55.75C227.111 53.95 226.777 52.6167 226.111 51.75C225.477 50.8833 224.461 50.45 223.061 50.45C222.261 50.45 221.427 50.6167 220.561 50.95C219.727 51.2833 218.994 51.7333 218.361 52.3V62.95C218.361 64.2833 218.544 65.2 218.911 65.7C219.311 66.1667 220.027 66.4 221.061 66.4C221.161 66.4 221.211 66.5 221.211 66.7C221.211 66.9 221.161 67 221.061 67C220.194 67 219.511 66.9833 219.011 66.95L216.011 66.9L213.061 66.95C212.561 66.9833 211.877 67 211.011 67C210.911 67 210.861 66.9 210.861 66.7C210.861 66.5 210.911 66.4 211.011 66.4C212.044 66.4 212.744 66.1667 213.111 65.7C213.477 65.2 213.661 64.2833 213.661 62.95V53.55C213.661 52.5167 213.527 51.7667 213.261 51.3C213.027 50.8 212.644 50.55 212.111 50.55C211.544 50.55 210.744 50.7833 209.711 51.25H209.611C209.511 51.25 209.427 51.1667 209.361 51C209.327 50.8333 209.344 50.7333 209.411 50.7L216.361 47.3C216.561 47.2333 216.677 47.2 216.711 47.2C217.077 47.2 217.427 47.5667 217.761 48.3C218.094 49 218.294 49.9667 218.361 51.2C220.661 48.4667 223.194 47.1 225.961 47.1C227.761 47.1 229.177 47.6833 230.211 48.85C231.277 49.9833 231.811 51.4833 231.811 53.35V62.95C231.811 64.2833 231.994 65.2 232.361 65.7C232.761 66.1667 233.477 66.4 234.511 66.4ZM256.548 36.65C254.448 36.65 252.864 37.1833 251.798 38.25C250.764 39.3167 250.014 41.1333 249.548 43.7C249.548 43.7667 249.448 43.8 249.248 43.8C249.081 43.8 248.998 43.7667 248.998 43.7C249.131 42.5 249.281 40.9333 249.448 39C249.614 37.0667 249.698 35.6167 249.698 34.65C249.698 34.4833 249.781 34.4 249.948 34.4C250.148 34.4 250.248 34.4833 250.248 34.65C250.248 35.3833 251.148 35.75 252.948 35.75C255.781 35.85 259.131 35.9 262.998 35.9C264.964 35.9 267.048 35.8667 269.248 35.8L272.648 35.75C273.848 35.75 274.731 35.6667 275.298 35.5C275.898 35.3333 276.281 35 276.448 34.5C276.481 34.3667 276.581 34.3 276.748 34.3C276.914 34.3 276.998 34.3667 276.998 34.5C276.898 35.4667 276.798 36.9333 276.698 38.9C276.598 40.8667 276.548 42.4667 276.548 43.7C276.548 43.7667 276.448 43.8 276.248 43.8C276.048 43.8 275.948 43.7667 275.948 43.7C275.848 41.1 275.314 39.2833 274.348 38.25C273.381 37.1833 271.781 36.65 269.548 36.65C268.048 36.65 266.981 36.7167 266.348 36.85C265.714 36.9833 265.281 37.2667 265.048 37.7C264.814 38.1333 264.698 38.8667 264.698 39.9V62.95C264.698 63.9833 264.814 64.7333 265.048 65.2C265.281 65.6667 265.731 65.9833 266.398 66.15C267.064 66.3167 268.114 66.4 269.548 66.4C269.648 66.4 269.698 66.5 269.698 66.7C269.698 66.9 269.648 67 269.548 67C268.448 67 267.564 66.9833 266.898 66.95L262.998 66.9L259.248 66.95C258.581 66.9833 257.664 67 256.498 67C256.431 67 256.398 66.9 256.398 66.7C256.398 66.5 256.431 66.4 256.498 66.4C257.931 66.4 258.981 66.3167 259.648 66.15C260.314 65.9833 260.764 65.6667 260.998 65.2C261.264 64.7 261.398 63.95 261.398 62.95V39.8C261.398 38.7667 261.281 38.05 261.048 37.65C260.814 37.2167 260.381 36.95 259.748 36.85C259.114 36.7167 258.048 36.65 256.548 36.65ZM288.436 47.25C289.169 47.25 289.869 47.45 290.536 47.85C291.202 48.25 291.536 48.7333 291.536 49.3C291.536 49.7333 291.386 50.1 291.086 50.4C290.819 50.7 290.419 50.85 289.886 50.85C289.586 50.85 289.319 50.8 289.086 50.7C288.886 50.5667 288.636 50.3833 288.336 50.15C288.036 49.8833 287.752 49.6833 287.486 49.55C287.219 49.4167 286.902 49.35 286.536 49.35C286.102 49.35 285.636 49.5333 285.136 49.9C284.669 50.2667 283.919 51.05 282.886 52.25V62.95C282.886 63.95 283.002 64.6833 283.236 65.15C283.502 65.6167 283.969 65.95 284.636 66.15C285.302 66.3167 286.336 66.4 287.736 66.4C287.869 66.4 287.936 66.5 287.936 66.7C287.936 66.9 287.869 67 287.736 67C286.669 67 285.819 66.9833 285.186 66.95L281.486 66.9L278.736 66.95C278.302 66.9833 277.702 67 276.936 67C276.836 67 276.786 66.9 276.786 66.7C276.786 66.5 276.836 66.4 276.936 66.4C277.836 66.4 278.502 66.3167 278.936 66.15C279.369 65.95 279.652 65.6167 279.786 65.15C279.952 64.6833 280.036 63.95 280.036 62.95V53.05C280.036 51.9167 279.902 51.1 279.636 50.6C279.369 50.1 278.919 49.85 278.286 49.85C277.752 49.85 276.852 50.1 275.586 50.6H275.486C275.352 50.6 275.252 50.5333 275.186 50.4C275.152 50.2333 275.202 50.1167 275.336 50.05L281.136 47.3L281.436 47.25C281.736 47.25 282.052 47.6333 282.386 48.4C282.719 49.1667 282.886 50.15 282.886 51.35V51.4C284.252 49.8 285.336 48.7167 286.136 48.15C286.936 47.55 287.702 47.25 288.436 47.25ZM312.867 64.3C313.001 64.3 313.084 64.3833 313.117 64.55C313.151 64.6833 313.101 64.7833 312.967 64.85L307.817 67.3C307.684 67.3667 307.551 67.4 307.417 67.4C306.984 67.4 306.601 67.1167 306.267 66.55C305.934 65.95 305.717 65.15 305.617 64.15L303.017 65.85C302.184 66.3833 301.451 66.7667 300.817 67C300.184 67.2333 299.517 67.35 298.817 67.35C297.584 67.35 296.617 67.0333 295.917 66.4C295.251 65.7333 294.917 64.9 294.917 63.9C294.917 62.9 295.317 62.0333 296.117 61.3C296.917 60.5667 298.234 59.8667 300.067 59.2L305.567 57.15V53.75C305.567 50.0167 304.517 48.15 302.417 48.15C301.284 48.15 300.417 48.5333 299.817 49.3C299.251 50.0333 298.867 50.8833 298.667 51.85C298.567 52.45 298.384 52.95 298.117 53.35C297.851 53.7167 297.401 53.9 296.767 53.9C296.234 53.9 295.817 53.75 295.517 53.45C295.251 53.15 295.117 52.8 295.117 52.4C295.117 51.6 295.634 50.8 296.667 50C297.701 49.2 298.934 48.5333 300.367 48C301.801 47.4667 303.084 47.2 304.217 47.2C305.584 47.2 306.617 47.6333 307.317 48.5C308.017 49.3667 308.367 50.6167 308.367 52.25V61.6C308.367 62.7667 308.517 63.6167 308.817 64.15C309.117 64.6833 309.617 64.95 310.317 64.95C310.951 64.95 311.767 64.7333 312.767 64.3H312.867ZM305.567 63.45V63.2V57.85L300.917 59.65C299.984 60.0167 299.301 60.45 298.867 60.95C298.467 61.4167 298.267 61.9833 298.267 62.65C298.267 63.45 298.517 64.1333 299.017 64.7C299.551 65.2333 300.234 65.5 301.067 65.5C301.734 65.5 302.534 65.2333 303.467 64.7L305.567 63.45ZM338.364 64.15C338.498 64.15 338.581 64.2333 338.614 64.4C338.681 64.5667 338.664 64.6833 338.564 64.75L333.064 67.35C332.864 67.4167 332.731 67.45 332.664 67.45C332.231 67.45 331.864 67.0833 331.564 66.35C331.264 65.6167 331.098 64.6 331.064 63.3C329.831 64.6 328.531 65.65 327.164 66.45C325.831 67.25 324.331 67.65 322.664 67.65C321.264 67.65 319.964 67.25 318.764 66.45C317.598 65.65 316.648 64.5333 315.914 63.1C315.214 61.6333 314.864 59.9667 314.864 58.1C314.864 55.7333 315.448 53.7167 316.614 52.05C317.781 50.3833 319.248 49.1333 321.014 48.3C322.781 47.4667 324.531 47.05 326.264 47.05C328.031 47.05 329.631 47.4833 331.064 48.35V37.15C331.064 35.95 330.931 35.0833 330.664 34.55C330.431 34.0167 330.014 33.75 329.414 33.75C328.981 33.75 328.214 33.9833 327.114 34.45H327.014C326.881 34.45 326.781 34.3833 326.714 34.25C326.681 34.0833 326.714 33.9667 326.814 33.9L333.164 30.8C333.231 30.7667 333.314 30.75 333.414 30.75C333.481 30.75 333.564 30.8 333.664 30.9C333.798 30.9667 333.864 31.05 333.864 31.15V61.5C333.864 62.7 333.998 63.5667 334.264 64.1C334.564 64.6333 335.031 64.9 335.664 64.9C336.631 64.9 337.498 64.6667 338.264 64.2L338.364 64.15ZM324.614 65.85C325.814 65.85 326.931 65.5667 327.964 65C328.998 64.4 330.031 63.5667 331.064 62.5V51.5C330.264 50.4 329.381 49.55 328.414 48.95C327.448 48.35 326.281 48.05 324.914 48.05C322.814 48.05 321.148 48.8 319.914 50.3C318.714 51.7667 318.114 53.8667 318.114 56.6C318.114 58.4333 318.398 60.05 318.964 61.45C319.531 62.85 320.298 63.9333 321.264 64.7C322.264 65.4667 323.381 65.85 324.614 65.85ZM356.6 64.2C356.7 64.2 356.784 64.2667 356.85 64.4C356.95 64.5 356.967 64.6 356.9 64.7C354.7 66.6333 352.267 67.6 349.6 67.6C347.667 67.6 346.017 67.15 344.65 66.25C343.284 65.35 342.234 64.1667 341.5 62.7C340.8 61.2333 340.45 59.6667 340.45 58C340.45 56.0333 340.917 54.2333 341.85 52.6C342.784 50.9333 344.05 49.6333 345.65 48.7C347.284 47.7333 349.067 47.25 351 47.25C352.867 47.25 354.3 47.75 355.3 48.75C356.3 49.75 356.8 51.15 356.8 52.95C356.8 53.4167 356.75 53.75 356.65 53.95C356.584 54.15 356.45 54.25 356.25 54.25L343.85 54.3C343.784 55.0333 343.75 55.6333 343.75 56.1C343.75 59 344.434 61.35 345.8 63.15C347.167 64.95 349.084 65.85 351.55 65.85C352.55 65.85 353.4 65.7167 354.1 65.45C354.834 65.1833 355.65 64.7667 356.55 64.2H356.6ZM349.35 48.25C347.917 48.25 346.734 48.7333 345.8 49.7C344.867 50.6333 344.25 51.95 343.95 53.65L353.45 53.45C353.45 51.75 353.084 50.4667 352.35 49.6C351.617 48.7 350.617 48.25 349.35 48.25ZM372.811 47.25C373.544 47.25 374.244 47.45 374.911 47.85C375.577 48.25 375.911 48.7333 375.911 49.3C375.911 49.7333 375.761 50.1 375.461 50.4C375.194 50.7 374.794 50.85 374.261 50.85C373.961 50.85 373.694 50.8 373.461 50.7C373.261 50.5667 373.011 50.3833 372.711 50.15C372.411 49.8833 372.127 49.6833 371.861 49.55C371.594 49.4167 371.277 49.35 370.911 49.35C370.477 49.35 370.011 49.5333 369.511 49.9C369.044 50.2667 368.294 51.05 367.261 52.25V62.95C367.261 63.95 367.377 64.6833 367.611 65.15C367.877 65.6167 368.344 65.95 369.011 66.15C369.677 66.3167 370.711 66.4 372.111 66.4C372.244 66.4 372.311 66.5 372.311 66.7C372.311 66.9 372.244 67 372.111 67C371.044 67 370.194 66.9833 369.561 66.95L365.861 66.9L363.111 66.95C362.677 66.9833 362.077 67 361.311 67C361.211 67 361.161 66.9 361.161 66.7C361.161 66.5 361.211 66.4 361.311 66.4C362.211 66.4 362.877 66.3167 363.311 66.15C363.744 65.95 364.027 65.6167 364.161 65.15C364.327 64.6833 364.411 63.95 364.411 62.95V53.05C364.411 51.9167 364.277 51.1 364.011 50.6C363.744 50.1 363.294 49.85 362.661 49.85C362.127 49.85 361.227 50.1 359.961 50.6H359.861C359.727 50.6 359.627 50.5333 359.561 50.4C359.527 50.2333 359.577 50.1167 359.711 50.05L365.511 47.3L365.811 47.25C366.111 47.25 366.427 47.6333 366.761 48.4C367.094 49.1667 367.261 50.15 367.261 51.35V51.4C368.627 49.8 369.711 48.7167 370.511 48.15C371.311 47.55 372.077 47.25 372.811 47.25ZM382.323 50.75C382.323 51.9167 382.707 52.85 383.473 53.55C384.24 54.2167 385.357 54.9333 386.823 55.7C387.99 56.3 388.89 56.8167 389.523 57.25C390.19 57.6833 390.757 58.25 391.223 58.95C391.69 59.65 391.923 60.5 391.923 61.5C391.923 63.2 391.29 64.6333 390.023 65.8C388.757 66.9667 387.04 67.55 384.873 67.55C383.107 67.55 381.507 67.05 380.073 66.05C379.873 65.9167 379.773 65.7167 379.773 65.45L379.673 61.55C379.673 61.45 379.757 61.4 379.923 61.4C380.123 61.3667 380.24 61.4 380.273 61.5C380.907 63.1667 381.723 64.4333 382.723 65.3C383.757 66.1667 384.94 66.6 386.273 66.6C387.373 66.6 388.207 66.3333 388.773 65.8C389.34 65.2667 389.59 64.4833 389.523 63.45C389.49 62.1833 389.09 61.2167 388.323 60.55C387.59 59.85 386.473 59.1333 384.973 58.4C383.873 57.8667 382.99 57.3833 382.323 56.95C381.69 56.5167 381.14 55.95 380.673 55.25C380.24 54.55 380.023 53.6833 380.023 52.65C380.023 50.85 380.69 49.4833 382.023 48.55C383.39 47.5833 384.99 47.1 386.823 47.1C388.157 47.1 389.373 47.35 390.473 47.85C390.673 47.9167 390.79 48 390.823 48.1C390.89 48.1667 390.923 48.2667 390.923 48.4C390.923 49.0667 390.907 49.5833 390.873 49.95L390.823 52.05C390.823 52.1167 390.723 52.15 390.523 52.15C390.323 52.15 390.223 52.1167 390.223 52.05C390.223 51.35 389.957 50.7 389.423 50.1C388.89 49.4667 388.223 48.9667 387.423 48.6C386.623 48.2333 385.823 48.05 385.023 48.05C384.19 48.05 383.523 48.2833 383.023 48.75C382.557 49.1833 382.323 49.85 382.323 50.75Z" fill="white"/>
</svg>
