<svg width="271" height="122" viewBox="0 0 271 122" fill="none" xmlns="http://www.w3.org/2000/svg">
<g opacity="0.76">
<path d="M47.3091 15L67.9186 19.9516L84.4461 33.8255L93.6181 53.874V76.126L82.3091 95.5L67.9186 110.048L47.3091 117L26.6996 110.048L12.3091 95.5L1 76.126V53.874L10.1721 33.8255L26.6996 19.9516L47.3091 15Z" fill="white" stroke="black" stroke-width="2"/>
<path d="M41.8091 49.1493L52.8091 49.1493" stroke="black" stroke-width="2"/>
<path d="M42.3091 49.5L26.9889 37" stroke="black" stroke-width="2"/>
<path d="M52.8091 49L66.3091 37" stroke="black" stroke-width="2"/>
<path d="M35 73.5L54.8091 56" stroke="black" stroke-width="2"/>
<path d="M59.5 73.5L40.1089 56" stroke="black" stroke-width="2"/>
<line y1="-1" x2="54.4152" y2="-1" transform="matrix(0.733252 -0.679958 0.641799 0.766873 1.70908 54)" stroke="black" stroke-width="2"/>
<line y1="-1" x2="55.1" y2="-1" transform="matrix(0.724138 0.689655 -0.651832 0.758364 53.0091 17)" stroke="black" stroke-width="2"/>
<path d="M2.09414 53.681L47.3091 116" stroke="black" stroke-width="2"/>
<line y1="-1" x2="43.1676" y2="-1" transform="matrix(-0.088029 0.996118 -0.99524 -0.0974531 10.259 34)" stroke="black" stroke-width="2"/>
<path d="M7.21268 76.3427L34.5 112.5" stroke="black" stroke-width="2"/>
<line y1="-1" x2="43.1676" y2="-1" transform="matrix(0.088029 0.996118 0.99524 -0.0974531 84.3591 34)" stroke="black" stroke-width="2"/>
<path d="M87.4055 76.3427L59 113" stroke="black" stroke-width="2"/>
<path d="M47.8091 116L92.524 53.681" stroke="black" stroke-width="2"/>
<line x1="1.70908" y1="76" x2="2.65908" y2="76" stroke="black" stroke-width="2"/>
<line x1="1.70908" y1="76" x2="7.40908" y2="76" stroke="black" stroke-width="2"/>
<path d="M87.5 76H92.9091" stroke="black" stroke-width="2"/>
<line y1="-1" x2="18.6162" y2="-1" transform="matrix(-0.255154 -0.9669 0.959811 -0.280647 7.4091 42)" stroke="black" stroke-width="2"/>
<line y1="-1" x2="12.1587" y2="-1" transform="matrix(0.725953 -0.687745 0.649852 0.760061 2.6591 25)" stroke="black" stroke-width="2"/>
<line x1="10.2591" y1="16" x2="19.7591" y2="16" stroke="black" stroke-width="2"/>
<line y1="-1" x2="7.29538" y2="-1" transform="matrix(0.911536 0.411219 -0.377087 0.926178 18.8091 17)" stroke="black" stroke-width="2"/>
<line y1="-1" x2="2.21416" y2="-1" transform="matrix(0.429057 0.903278 -0.884918 0.465746 24.5091 19)" stroke="black" stroke-width="2"/>
<line x1="9.85286" y1="35.2927" x2="6.85284" y2="25.4903" stroke="black" stroke-width="2"/>
<line y1="-1" x2="6.93257" y2="-1" transform="matrix(0.725953 -0.687745 0.649852 0.760061 7.80908 25.7678)" stroke="black" stroke-width="2"/>
<line x1="12.1424" y1="20.2064" x2="17.5591" y2="20.2064" stroke="black" stroke-width="2"/>
<line y1="-1" x2="4.15964" y2="-1" transform="matrix(0.911536 0.411219 -0.377087 0.926178 17.0174 21.2064)" stroke="black" stroke-width="2"/>
<path d="M20.7099 22.1139L22.3091 24.5" stroke="black" stroke-width="2"/>
<line y1="-1" x2="18.6162" y2="-1" transform="matrix(0.255154 -0.9669 -0.959811 -0.280647 87.209 42.3621)" stroke="black" stroke-width="2"/>
<line y1="-1" x2="12.1587" y2="-1" transform="matrix(-0.725953 -0.687745 -0.649852 0.760061 91.959 25.3621)" stroke="black" stroke-width="2"/>
<line y1="-1" x2="9.5" y2="-1" transform="matrix(-1 0 0 1 84.3591 17.3621)" stroke="black" stroke-width="2"/>
<line y1="-1" x2="7.29538" y2="-1" transform="matrix(-0.911536 0.411219 0.377087 0.926178 75.8091 17.3621)" stroke="black" stroke-width="2"/>
<line y1="-1" x2="2.21416" y2="-1" transform="matrix(-0.429057 0.903278 0.884918 0.465746 70.1091 19.3621)" stroke="black" stroke-width="2"/>
<path d="M84.321 34.8915L86.8091 26" stroke="black" stroke-width="2"/>
<line y1="-1" x2="6.93257" y2="-1" transform="matrix(-0.725953 -0.687745 -0.649852 0.760061 86.8091 26.7678)" stroke="black" stroke-width="2"/>
<line y1="-1" x2="5.41667" y2="-1" transform="matrix(-1 0 0 1 82.4757 22.2064)" stroke="black" stroke-width="2"/>
<line y1="-1" x2="4.15964" y2="-1" transform="matrix(-0.911536 0.411219 0.377087 0.926178 77.6007 22.2064)" stroke="black" stroke-width="2"/>
<path d="M73.9083 23.1139L72.8091 24.5" stroke="black" stroke-width="2"/>
<line y1="-1" x2="22.9439" y2="-1" transform="matrix(0.952323 0.305092 -0.277754 0.960652 25.4591 21)" stroke="black" stroke-width="2"/>
<line y1="-1" x2="22.0411" y2="-1" transform="matrix(0.948229 -0.317589 0.289343 0.957225 47.3091 28)" stroke="black" stroke-width="2"/>
<line y1="-1" x2="12.3891" y2="-1" transform="matrix(0.460082 0.887877 -0.86722 0.497925 41.6091 17)" stroke="black" stroke-width="2"/>
<line y1="-1" x2="12.8539" y2="-1" transform="matrix(0.517353 -0.855772 0.830825 0.556534 47.3091 28)" stroke="black" stroke-width="2"/>
<line y1="-1" x2="41.1911" y2="-1" transform="matrix(0.899467 -0.436988 0.401558 0.915834 10.2591 46)" stroke="black" stroke-width="2"/>
<line y1="-1" x2="41.6378" y2="-1" transform="matrix(0.889817 0.456317 -0.420017 0.907516 47.3091 28)" stroke="black" stroke-width="2"/>
<line x1="32.1091" y1="94" x2="62.5091" y2="94" stroke="black" stroke-width="2"/>
<path d="M34 94.1278L37.6316 96.895L40.5 99" stroke="black" stroke-width="2"/>
<line y1="-1" x2="9.68298" y2="-1" transform="matrix(0.784882 -0.619646 0.580276 0.81442 55 100)" stroke="black" stroke-width="2"/>
<path d="M40 99H55" stroke="black" stroke-width="2"/>
<path d="M47.55 74V77.4298V80.2308H39L42.3981 74H47.55Z" fill="black"/>
<path d="M47.5501 74V77.4298V80.2308H56.1001L52.702 74H47.5501Z" fill="black"/>
<path d="M47.55 90.7751L42.2885 89.8077L39 80.2308H47.55V90.7751Z" fill="black"/>
<path d="M47.55 90.7751L53.25 89.8077L56.1 80.2308H47.55V90.7751Z" fill="black"/>
<path d="M10.7472 45.6781L40.5 80.5" stroke="black" stroke-width="2"/>
<path d="M55 80L83.8772 46.6736" stroke="black" stroke-width="2"/>
<path d="M32.2087 94.618L44 87.5" stroke="black" stroke-width="2"/>
<path d="M50.5 87L62.7011 94.2109" stroke="black" stroke-width="2"/>
<path d="M21.8091 50L37.0091 58H24.9757L21.8091 50Z" fill="#000F5F"/>
<path d="M73.4757 50L57.6424 58H70.3091L73.4757 50Z" fill="#000F5F"/>
<path d="M47.3091 27.5L59.3091 73.5" stroke="black" stroke-width="2"/>
<path d="M39.8091 56L54.8091 56" stroke="black" stroke-width="2"/>
<path d="M35.3091 73.5L47.1549 27.9492" stroke="black" stroke-width="2"/>
</g>
<path d="M139.6 28.4C142.233 28.6 144.35 29.4833 145.95 31.05C147.583 32.5833 148.4 34.5 148.4 36.8C148.4 38.5667 147.967 40.1667 147.1 41.6C146.233 43.0333 145.033 44.1667 143.5 45C142 45.8 140.317 46.2 138.45 46.2C137.35 46.2 136.15 46.15 134.85 46.05C134.383 46.0167 133.833 45.9833 133.2 45.95C132.567 45.9167 131.867 45.9 131.1 45.9L127.7 45.95C127.1 45.9833 126.25 46 125.15 46C125.083 46 125.05 45.9 125.05 45.7C125.05 45.5 125.083 45.4 125.15 45.4C126.383 45.4 127.3 45.3167 127.9 45.15C128.5 44.95 128.917 44.6167 129.15 44.15C129.383 43.6833 129.5 42.95 129.5 41.95V18.8C129.5 17.8 129.383 17.0667 129.15 16.6C128.95 16.1333 128.55 15.8167 127.95 15.65C127.383 15.45 126.483 15.35 125.25 15.35C125.15 15.35 125.1 15.25 125.1 15.05C125.1 14.85 125.15 14.75 125.25 14.75L127.7 14.8C129.1 14.8667 130.233 14.9 131.1 14.9C131.7 14.9 132.25 14.8833 132.75 14.85C133.283 14.8167 133.733 14.7833 134.1 14.75C135.133 14.65 136.1 14.6 137 14.6C139.8 14.6 141.9 15.2167 143.3 16.45C144.7 17.65 145.4 19.2333 145.4 21.2C145.4 22.8 144.883 24.2333 143.85 25.5C142.817 26.7333 141.4 27.7 139.6 28.4ZM135.95 15.35C135.083 15.35 134.433 15.4333 134 15.6C133.567 15.7333 133.25 16.05 133.05 16.55C132.85 17.0167 132.75 17.8 132.75 18.9V28.4L135 28.45C137.433 28.45 139.233 27.8333 140.4 26.6C141.567 25.3333 142.15 23.6667 142.15 21.6C142.15 19.7333 141.633 18.2333 140.6 17.1C139.6 15.9333 138.05 15.35 135.95 15.35ZM137.7 45.3C140.133 45.3 141.933 44.6833 143.1 43.45C144.3 42.1833 144.9 40.3833 144.9 38.05C144.9 35.5167 144.15 33.4667 142.65 31.9C141.183 30.3333 139.15 29.5333 136.55 29.5C135.483 29.4667 134.217 29.5 132.75 29.6V41.95C132.75 42.8167 132.867 43.4833 133.1 43.95C133.367 44.4167 133.85 44.7667 134.55 45C135.283 45.2 136.333 45.3 137.7 45.3ZM164.631 26.25C165.364 26.25 166.064 26.45 166.731 26.85C167.398 27.25 167.731 27.7333 167.731 28.3C167.731 28.7333 167.581 29.1 167.281 29.4C167.014 29.7 166.614 29.85 166.081 29.85C165.781 29.85 165.514 29.8 165.281 29.7C165.081 29.5667 164.831 29.3833 164.531 29.15C164.231 28.8833 163.948 28.6833 163.681 28.55C163.414 28.4167 163.098 28.35 162.731 28.35C162.298 28.35 161.831 28.5333 161.331 28.9C160.864 29.2667 160.114 30.05 159.081 31.25V41.95C159.081 42.95 159.198 43.6833 159.431 44.15C159.698 44.6167 160.164 44.95 160.831 45.15C161.498 45.3167 162.531 45.4 163.931 45.4C164.064 45.4 164.131 45.5 164.131 45.7C164.131 45.9 164.064 46 163.931 46C162.864 46 162.014 45.9833 161.381 45.95L157.681 45.9L154.931 45.95C154.498 45.9833 153.898 46 153.131 46C153.031 46 152.981 45.9 152.981 45.7C152.981 45.5 153.031 45.4 153.131 45.4C154.031 45.4 154.698 45.3167 155.131 45.15C155.564 44.95 155.848 44.6167 155.981 44.15C156.148 43.6833 156.231 42.95 156.231 41.95V32.05C156.231 30.9167 156.098 30.1 155.831 29.6C155.564 29.1 155.114 28.85 154.481 28.85C153.948 28.85 153.048 29.1 151.781 29.6H151.681C151.548 29.6 151.448 29.5333 151.381 29.4C151.348 29.2333 151.398 29.1167 151.531 29.05L157.331 26.3L157.631 26.25C157.931 26.25 158.248 26.6333 158.581 27.4C158.914 28.1667 159.081 29.15 159.081 30.35V30.4C160.448 28.8 161.531 27.7167 162.331 27.15C163.131 26.55 163.898 26.25 164.631 26.25ZM193.444 43.15C193.577 43.15 193.66 43.2333 193.694 43.4C193.76 43.5333 193.727 43.6333 193.594 43.7L187.744 46.45L187.544 46.5C187.21 46.5 186.894 46.1167 186.594 45.35C186.294 44.5833 186.144 43.5833 186.144 42.35V42.15C184.844 43.6167 183.544 44.7 182.244 45.4C180.944 46.0667 179.594 46.4 178.194 46.4C176.527 46.4 175.227 45.8833 174.294 44.85C173.36 43.7833 172.894 42.25 172.894 40.25V32.6C172.894 31.3 172.777 30.3667 172.544 29.8C172.31 29.2 171.927 28.9 171.394 28.9C170.927 28.9 170.36 29.0667 169.694 29.4H169.644C169.51 29.4 169.41 29.3167 169.344 29.15C169.277 28.95 169.31 28.8333 169.444 28.8L174.994 26.3L175.194 26.25C175.294 26.25 175.394 26.3 175.494 26.4C175.627 26.4667 175.694 26.55 175.694 26.65V38.6C175.694 42.4667 177.094 44.4 179.894 44.4C180.96 44.4 182.044 44.1333 183.144 43.6C184.244 43.0333 185.244 42.2667 186.144 41.3V32.6C186.144 31.2667 186.027 30.3167 185.794 29.75C185.594 29.1833 185.21 28.9 184.644 28.9C184.177 28.9 183.61 29.0667 182.944 29.4H182.894C182.76 29.4 182.66 29.3167 182.594 29.15C182.56 28.95 182.61 28.8333 182.744 28.8L188.294 26.3L188.444 26.25C188.544 26.25 188.644 26.3 188.744 26.4C188.877 26.4667 188.944 26.55 188.944 26.65V40.65C188.944 41.7833 189.077 42.6 189.344 43.1C189.61 43.6 190.06 43.85 190.694 43.85C191.26 43.85 192.144 43.6167 193.344 43.15H193.444ZM200.602 20.4C199.902 20.4 199.352 20.2167 198.952 19.85C198.585 19.4833 198.402 18.9667 198.402 18.3C198.402 17.6333 198.585 17.1167 198.952 16.75C199.352 16.3833 199.902 16.2 200.602 16.2C201.269 16.2 201.785 16.3833 202.152 16.75C202.519 17.1167 202.702 17.6333 202.702 18.3C202.702 18.9667 202.519 19.4833 202.152 19.85C201.785 20.2167 201.269 20.4 200.602 20.4ZM196.402 46C196.335 46 196.302 45.9 196.302 45.7C196.302 45.5 196.335 45.4 196.402 45.4C197.302 45.4 197.969 45.3167 198.402 45.15C198.869 44.95 199.185 44.6167 199.352 44.15C199.519 43.65 199.602 42.9167 199.602 41.95V32.6C199.602 31.4 199.469 30.5333 199.202 30C198.969 29.4667 198.552 29.2 197.952 29.2C197.352 29.2 196.602 29.4333 195.702 29.9H195.652C195.519 29.9 195.419 29.8167 195.352 29.65C195.285 29.4833 195.302 29.3667 195.402 29.3L201.902 26.3L202.102 26.25C202.169 26.25 202.252 26.3 202.352 26.4C202.452 26.4667 202.502 26.55 202.502 26.65C202.502 26.8833 202.485 27.55 202.452 28.65C202.419 29.75 202.402 31.05 202.402 32.55V41.95C202.402 42.95 202.485 43.6833 202.652 44.15C202.819 44.6167 203.119 44.95 203.552 45.15C203.985 45.3167 204.652 45.4 205.552 45.4C205.652 45.4 205.702 45.5 205.702 45.7C205.702 45.9 205.652 46 205.552 46C204.785 46 204.169 45.9833 203.702 45.95L201.002 45.9L198.302 45.95C197.835 45.9833 197.202 46 196.402 46ZM232.174 45.4C232.274 45.4 232.324 45.5 232.324 45.7C232.324 45.9 232.274 46 232.174 46C231.407 46 230.807 45.9833 230.374 45.95L227.674 45.9L224.924 45.95C224.49 45.9833 223.89 46 223.124 46C223.024 46 222.974 45.9 222.974 45.7C222.974 45.5 223.024 45.4 223.124 45.4C224.024 45.4 224.69 45.3167 225.124 45.15C225.557 44.95 225.84 44.6167 225.974 44.15C226.14 43.6833 226.224 42.95 226.224 41.95V33.85C226.224 31.8833 225.84 30.4333 225.074 29.5C224.34 28.5667 223.19 28.1 221.624 28.1C220.59 28.1 219.54 28.3833 218.474 28.95C217.44 29.4833 216.49 30.2333 215.624 31.2V41.95C215.624 42.95 215.69 43.6833 215.824 44.15C215.99 44.6167 216.29 44.95 216.724 45.15C217.157 45.3167 217.824 45.4 218.724 45.4C218.824 45.4 218.874 45.5 218.874 45.7C218.874 45.9 218.824 46 218.724 46C217.957 46 217.357 45.9833 216.924 45.95L214.224 45.9L211.474 45.95C211.04 45.9833 210.44 46 209.674 46C209.574 46 209.524 45.9 209.524 45.7C209.524 45.5 209.574 45.4 209.674 45.4C210.574 45.4 211.24 45.3167 211.674 45.15C212.107 44.95 212.39 44.6167 212.524 44.15C212.69 43.6833 212.774 42.95 212.774 41.95V32.05C212.774 30.9167 212.64 30.1 212.374 29.6C212.107 29.1 211.657 28.85 211.024 28.85C210.49 28.85 209.59 29.1 208.324 29.6H208.224C208.09 29.6 207.99 29.5333 207.924 29.4C207.89 29.2333 207.94 29.1167 208.074 29.05L213.874 26.3L214.174 26.25C214.474 26.25 214.79 26.6333 215.124 27.4C215.457 28.1667 215.624 29.15 215.624 30.35C216.89 28.8833 218.14 27.8 219.374 27.1C220.64 26.4 221.94 26.05 223.274 26.05C225.14 26.05 226.574 26.5667 227.574 27.6C228.574 28.6333 229.074 30.15 229.074 32.15V41.95C229.074 42.95 229.14 43.6833 229.274 44.15C229.44 44.6167 229.74 44.95 230.174 45.15C230.607 45.3167 231.274 45.4 232.174 45.4Z" fill="#000F5F"/>
<path d="M132.45 76.65C130.35 76.65 128.767 77.1833 127.7 78.25C126.667 79.3167 125.917 81.1333 125.45 83.7C125.45 83.7667 125.35 83.8 125.15 83.8C124.983 83.8 124.9 83.7667 124.9 83.7C125.033 82.5 125.183 80.9333 125.35 79C125.517 77.0667 125.6 75.6167 125.6 74.65C125.6 74.4833 125.683 74.4 125.85 74.4C126.05 74.4 126.15 74.4833 126.15 74.65C126.15 75.3833 127.05 75.75 128.85 75.75C131.683 75.85 135.033 75.9 138.9 75.9C140.867 75.9 142.95 75.8667 145.15 75.8L148.55 75.75C149.75 75.75 150.633 75.6667 151.2 75.5C151.8 75.3333 152.183 75 152.35 74.5C152.383 74.3667 152.483 74.3 152.65 74.3C152.817 74.3 152.9 74.3667 152.9 74.5C152.8 75.4667 152.7 76.9333 152.6 78.9C152.5 80.8667 152.45 82.4667 152.45 83.7C152.45 83.7667 152.35 83.8 152.15 83.8C151.95 83.8 151.85 83.7667 151.85 83.7C151.75 81.1 151.217 79.2833 150.25 78.25C149.283 77.1833 147.683 76.65 145.45 76.65C143.95 76.65 142.883 76.7167 142.25 76.85C141.617 76.9833 141.183 77.2667 140.95 77.7C140.717 78.1333 140.6 78.8667 140.6 79.9V102.95C140.6 103.983 140.717 104.733 140.95 105.2C141.183 105.667 141.633 105.983 142.3 106.15C142.967 106.317 144.017 106.4 145.45 106.4C145.55 106.4 145.6 106.5 145.6 106.7C145.6 106.9 145.55 107 145.45 107C144.35 107 143.467 106.983 142.8 106.95L138.9 106.9L135.15 106.95C134.483 106.983 133.567 107 132.4 107C132.333 107 132.3 106.9 132.3 106.7C132.3 106.5 132.333 106.4 132.4 106.4C133.833 106.4 134.883 106.317 135.55 106.15C136.217 105.983 136.667 105.667 136.9 105.2C137.167 104.7 137.3 103.95 137.3 102.95V79.8C137.3 78.7667 137.183 78.05 136.95 77.65C136.717 77.2167 136.283 76.95 135.65 76.85C135.017 76.7167 133.95 76.65 132.45 76.65ZM164.338 87.25C165.071 87.25 165.771 87.45 166.438 87.85C167.105 88.25 167.438 88.7333 167.438 89.3C167.438 89.7333 167.288 90.1 166.988 90.4C166.721 90.7 166.321 90.85 165.788 90.85C165.488 90.85 165.221 90.8 164.988 90.7C164.788 90.5667 164.538 90.3833 164.238 90.15C163.938 89.8833 163.655 89.6833 163.388 89.55C163.121 89.4167 162.805 89.35 162.438 89.35C162.005 89.35 161.538 89.5333 161.038 89.9C160.571 90.2667 159.821 91.05 158.788 92.25V102.95C158.788 103.95 158.905 104.683 159.138 105.15C159.405 105.617 159.871 105.95 160.538 106.15C161.205 106.317 162.238 106.4 163.638 106.4C163.771 106.4 163.838 106.5 163.838 106.7C163.838 106.9 163.771 107 163.638 107C162.571 107 161.721 106.983 161.088 106.95L157.388 106.9L154.638 106.95C154.205 106.983 153.605 107 152.838 107C152.738 107 152.688 106.9 152.688 106.7C152.688 106.5 152.738 106.4 152.838 106.4C153.738 106.4 154.405 106.317 154.838 106.15C155.271 105.95 155.555 105.617 155.688 105.15C155.855 104.683 155.938 103.95 155.938 102.95V93.05C155.938 91.9167 155.805 91.1 155.538 90.6C155.271 90.1 154.821 89.85 154.188 89.85C153.655 89.85 152.755 90.1 151.488 90.6H151.388C151.255 90.6 151.155 90.5333 151.088 90.4C151.055 90.2333 151.105 90.1167 151.238 90.05L157.038 87.3L157.338 87.25C157.638 87.25 157.955 87.6333 158.288 88.4C158.621 89.1667 158.788 90.15 158.788 91.35V91.4C160.155 89.8 161.238 88.7167 162.038 88.15C162.838 87.55 163.605 87.25 164.338 87.25ZM188.77 104.3C188.903 104.3 188.986 104.383 189.02 104.55C189.053 104.683 189.003 104.783 188.87 104.85L183.72 107.3C183.586 107.367 183.453 107.4 183.32 107.4C182.886 107.4 182.503 107.117 182.17 106.55C181.836 105.95 181.62 105.15 181.52 104.15L178.92 105.85C178.086 106.383 177.353 106.767 176.72 107C176.086 107.233 175.42 107.35 174.72 107.35C173.486 107.35 172.52 107.033 171.82 106.4C171.153 105.733 170.82 104.9 170.82 103.9C170.82 102.9 171.22 102.033 172.02 101.3C172.82 100.567 174.136 99.8667 175.97 99.2L181.47 97.15V93.75C181.47 90.0167 180.42 88.15 178.32 88.15C177.186 88.15 176.32 88.5333 175.72 89.3C175.153 90.0333 174.77 90.8833 174.57 91.85C174.47 92.45 174.286 92.95 174.02 93.35C173.753 93.7167 173.303 93.9 172.67 93.9C172.136 93.9 171.72 93.75 171.42 93.45C171.153 93.15 171.02 92.8 171.02 92.4C171.02 91.6 171.536 90.8 172.57 90C173.603 89.2 174.836 88.5333 176.27 88C177.703 87.4667 178.986 87.2 180.12 87.2C181.486 87.2 182.52 87.6333 183.22 88.5C183.92 89.3667 184.27 90.6167 184.27 92.25V101.6C184.27 102.767 184.42 103.617 184.72 104.15C185.02 104.683 185.52 104.95 186.22 104.95C186.853 104.95 187.67 104.733 188.67 104.3H188.77ZM181.47 103.45V103.2V97.85L176.82 99.65C175.886 100.017 175.203 100.45 174.77 100.95C174.37 101.417 174.17 101.983 174.17 102.65C174.17 103.45 174.42 104.133 174.92 104.7C175.453 105.233 176.136 105.5 176.97 105.5C177.636 105.5 178.436 105.233 179.37 104.7L181.47 103.45ZM214.267 104.15C214.4 104.15 214.483 104.233 214.517 104.4C214.583 104.567 214.567 104.683 214.467 104.75L208.967 107.35C208.767 107.417 208.633 107.45 208.567 107.45C208.133 107.45 207.767 107.083 207.467 106.35C207.167 105.617 207 104.6 206.967 103.3C205.733 104.6 204.433 105.65 203.067 106.45C201.733 107.25 200.233 107.65 198.567 107.65C197.167 107.65 195.867 107.25 194.667 106.45C193.5 105.65 192.55 104.533 191.817 103.1C191.117 101.633 190.767 99.9667 190.767 98.1C190.767 95.7333 191.35 93.7167 192.517 92.05C193.683 90.3833 195.15 89.1333 196.917 88.3C198.683 87.4667 200.433 87.05 202.167 87.05C203.933 87.05 205.533 87.4833 206.967 88.35V77.15C206.967 75.95 206.833 75.0833 206.567 74.55C206.333 74.0167 205.917 73.75 205.317 73.75C204.883 73.75 204.117 73.9833 203.017 74.45H202.917C202.783 74.45 202.683 74.3833 202.617 74.25C202.583 74.0833 202.617 73.9667 202.717 73.9L209.067 70.8C209.133 70.7667 209.217 70.75 209.317 70.75C209.383 70.75 209.467 70.8 209.567 70.9C209.7 70.9667 209.767 71.05 209.767 71.15V101.5C209.767 102.7 209.9 103.567 210.167 104.1C210.467 104.633 210.933 104.9 211.567 104.9C212.533 104.9 213.4 104.667 214.167 104.2L214.267 104.15ZM200.517 105.85C201.717 105.85 202.833 105.567 203.867 105C204.9 104.4 205.933 103.567 206.967 102.5V91.5C206.167 90.4 205.283 89.55 204.317 88.95C203.35 88.35 202.183 88.05 200.817 88.05C198.717 88.05 197.05 88.8 195.817 90.3C194.617 91.7667 194.017 93.8667 194.017 96.6C194.017 98.4333 194.3 100.05 194.867 101.45C195.433 102.85 196.2 103.933 197.167 104.7C198.167 105.467 199.283 105.85 200.517 105.85ZM232.503 104.2C232.603 104.2 232.686 104.267 232.753 104.4C232.853 104.5 232.869 104.6 232.803 104.7C230.603 106.633 228.169 107.6 225.503 107.6C223.569 107.6 221.919 107.15 220.553 106.25C219.186 105.35 218.136 104.167 217.403 102.7C216.703 101.233 216.353 99.6667 216.353 98C216.353 96.0333 216.819 94.2333 217.753 92.6C218.686 90.9333 219.953 89.6333 221.553 88.7C223.186 87.7333 224.969 87.25 226.903 87.25C228.769 87.25 230.203 87.75 231.203 88.75C232.203 89.75 232.703 91.15 232.703 92.95C232.703 93.4167 232.653 93.75 232.553 93.95C232.486 94.15 232.353 94.25 232.153 94.25L219.753 94.3C219.686 95.0333 219.653 95.6333 219.653 96.1C219.653 99 220.336 101.35 221.703 103.15C223.069 104.95 224.986 105.85 227.453 105.85C228.453 105.85 229.303 105.717 230.003 105.45C230.736 105.183 231.553 104.767 232.453 104.2H232.503ZM225.253 88.25C223.819 88.25 222.636 88.7333 221.703 89.7C220.769 90.6333 220.153 91.95 219.853 93.65L229.353 93.45C229.353 91.75 228.986 90.4667 228.253 89.6C227.519 88.7 226.519 88.25 225.253 88.25ZM248.713 87.25C249.446 87.25 250.146 87.45 250.813 87.85C251.48 88.25 251.813 88.7333 251.813 89.3C251.813 89.7333 251.663 90.1 251.363 90.4C251.096 90.7 250.696 90.85 250.163 90.85C249.863 90.85 249.596 90.8 249.363 90.7C249.163 90.5667 248.913 90.3833 248.613 90.15C248.313 89.8833 248.03 89.6833 247.763 89.55C247.496 89.4167 247.18 89.35 246.813 89.35C246.38 89.35 245.913 89.5333 245.413 89.9C244.946 90.2667 244.196 91.05 243.163 92.25V102.95C243.163 103.95 243.28 104.683 243.513 105.15C243.78 105.617 244.246 105.95 244.913 106.15C245.58 106.317 246.613 106.4 248.013 106.4C248.146 106.4 248.213 106.5 248.213 106.7C248.213 106.9 248.146 107 248.013 107C246.946 107 246.096 106.983 245.463 106.95L241.763 106.9L239.013 106.95C238.58 106.983 237.98 107 237.213 107C237.113 107 237.063 106.9 237.063 106.7C237.063 106.5 237.113 106.4 237.213 106.4C238.113 106.4 238.78 106.317 239.213 106.15C239.646 105.95 239.93 105.617 240.063 105.15C240.23 104.683 240.313 103.95 240.313 102.95V93.05C240.313 91.9167 240.18 91.1 239.913 90.6C239.646 90.1 239.196 89.85 238.563 89.85C238.03 89.85 237.13 90.1 235.863 90.6H235.763C235.63 90.6 235.53 90.5333 235.463 90.4C235.43 90.2333 235.48 90.1167 235.613 90.05L241.413 87.3L241.713 87.25C242.013 87.25 242.33 87.6333 242.663 88.4C242.996 89.1667 243.163 90.15 243.163 91.35V91.4C244.53 89.8 245.613 88.7167 246.413 88.15C247.213 87.55 247.98 87.25 248.713 87.25ZM258.226 90.75C258.226 91.9167 258.609 92.85 259.376 93.55C260.142 94.2167 261.259 94.9333 262.726 95.7C263.892 96.3 264.792 96.8167 265.426 97.25C266.092 97.6833 266.659 98.25 267.126 98.95C267.592 99.65 267.826 100.5 267.826 101.5C267.826 103.2 267.192 104.633 265.926 105.8C264.659 106.967 262.942 107.55 260.776 107.55C259.009 107.55 257.409 107.05 255.976 106.05C255.776 105.917 255.676 105.717 255.676 105.45L255.576 101.55C255.576 101.45 255.659 101.4 255.826 101.4C256.026 101.367 256.142 101.4 256.176 101.5C256.809 103.167 257.626 104.433 258.626 105.3C259.659 106.167 260.842 106.6 262.176 106.6C263.276 106.6 264.109 106.333 264.676 105.8C265.242 105.267 265.492 104.483 265.426 103.45C265.392 102.183 264.992 101.217 264.226 100.55C263.492 99.85 262.376 99.1333 260.876 98.4C259.776 97.8667 258.892 97.3833 258.226 96.95C257.592 96.5167 257.042 95.95 256.576 95.25C256.142 94.55 255.926 93.6833 255.926 92.65C255.926 90.85 256.592 89.4833 257.926 88.55C259.292 87.5833 260.892 87.1 262.726 87.1C264.059 87.1 265.276 87.35 266.376 87.85C266.576 87.9167 266.692 88 266.726 88.1C266.792 88.1667 266.826 88.2667 266.826 88.4C266.826 89.0667 266.809 89.5833 266.776 89.95L266.726 92.05C266.726 92.1167 266.626 92.15 266.426 92.15C266.226 92.15 266.126 92.1167 266.126 92.05C266.126 91.35 265.859 90.7 265.326 90.1C264.792 89.4667 264.126 88.9667 263.326 88.6C262.526 88.2333 261.726 88.05 260.926 88.05C260.092 88.05 259.426 88.2833 258.926 88.75C258.459 89.1833 258.226 89.85 258.226 90.75Z" fill="black"/>
</svg>
